<svg viewBox="0 0 17 15.3333" x="0" y="0" fill="none" xmlns="http://www.w3.org/2000/svg"><path id="Vector_59" d="M9.3333,1.8337h6.6667M9.3333,5.1667h4.1667M9.3333,10.1667h6.6667M9.3333,13.4997h4.1667M1,1.8337c0,-0.221 0.0878,-0.433 0.2441,-0.59c0.1563,-0.156 0.3682,-0.244 0.5892,-0.244h3.3334c0.221,0 0.4329,0.088 0.5892,0.244c0.1563,0.157 0.2441,0.369 0.2441,0.59v3.333c0,0.221 -0.0878,0.433 -0.2441,0.589c-0.1563,0.157 -0.3682,0.244 -0.5892,0.244h-3.3334c-0.221,0 -0.4329,-0.087 -0.5892,-0.244c-0.1563,-0.156 -0.2441,-0.368 -0.2441,-0.589zM1,10.1667c0,-0.221 0.0878,-0.433 0.2441,-0.589c0.1563,-0.157 0.3682,-0.244 0.5892,-0.244h3.3334c0.221,0 0.4329,0.087 0.5892,0.244c0.1563,0.156 0.2441,0.368 0.2441,0.589v3.333c0,0.221 -0.0878,0.433 -0.2441,0.59c-0.1563,0.156 -0.3682,0.244 -0.5892,0.244h-3.3334c-0.221,0 -0.4329,-0.088 -0.5892,-0.244c-0.1563,-0.157 -0.2441,-0.369 -0.2441,-0.59z" stroke="#4F4F4F" stroke-width="2" stroke-linecap="round" stroke-linejoin="round" xmlns="http://www.w3.org/2000/svg"/></svg>