<svg viewBox="0 0 17 11.1667" x="0" y="0" fill="none" xmlns="http://www.w3.org/2000/svg"><path id="Vector_64" d="M1,0.9997v9.167M1,6.8337h15M16,10.1667v-6.667c0,-0.442 -0.1756,-0.866 -0.4882,-1.178c-0.3125,-0.313 -0.7364,-0.488 -1.1785,-0.488h-6.6666v5M3.5,3.4997c0,0.221 0.0878,0.433 0.2441,0.59c0.1563,0.156 0.3682,0.244 0.5892,0.244c0.221,0 0.433,-0.088 0.5893,-0.244c0.1563,-0.157 0.2441,-0.369 0.2441,-0.59c0,-0.221 -0.0878,-0.433 -0.2441,-0.589c-0.1563,-0.156 -0.3683,-0.244 -0.5893,-0.244c-0.221,0 -0.4329,0.088 -0.5892,0.244c-0.1563,0.156 -0.2441,0.368 -0.2441,0.589z" stroke="#4F4F4F" stroke-width="2" stroke-linecap="round" stroke-linejoin="round" xmlns="http://www.w3.org/2000/svg"/></svg>