<svg viewBox="0 0 15.3333 15.3333" x="0" y="0" fill="none" xmlns="http://www.w3.org/2000/svg"><g id="Vector_58" xmlns="http://www.w3.org/2000/svg">
<path d="M1,2.6667c0,-0.442 0.1756,-0.866 0.4882,-1.179c0.3125,-0.312 0.7365,-0.488 1.1785,-0.488h1.6666c0.4421,0 0.866,0.176 1.1786,0.488c0.3125,0.313 0.4881,0.737 0.4881,1.179v0.833c0,0.442 -0.1756,0.866 -0.4881,1.179c-0.3126,0.312 -0.7365,0.488 -1.1786,0.488h-1.6666c-0.442,0 -0.866,-0.176 -1.1785,-0.488c-0.3126,-0.313 -0.4882,-0.737 -0.4882,-1.179z" stroke="#4F4F4F" stroke-width="2" stroke-linecap="round" stroke-linejoin="round"/>
<path d="M1,10.1667c0,-0.442 0.1756,-0.866 0.4882,-1.179c0.3125,-0.312 0.7365,-0.488 1.1785,-0.488h1.6666c0.4421,0 0.866,0.176 1.1786,0.488c0.3125,0.313 0.4881,0.737 0.4881,1.179v2.5c0,0.442 -0.1756,0.866 -0.4881,1.179c-0.3126,0.312 -0.7365,0.488 -1.1786,0.488h-1.6666c-0.442,0 -0.866,-0.176 -1.1785,-0.488c-0.3126,-0.313 -0.4882,-0.737 -0.4882,-1.179z" stroke="#4F4F4F" stroke-width="2" stroke-linecap="round" stroke-linejoin="round"/>
<path d="M9.3333,2.6667c0,-0.442 0.1756,-0.866 0.4882,-1.179c0.3126,-0.312 0.7365,-0.488 1.1785,-0.488h1.6667c0.442,0 0.8659,0.176 1.1785,0.488c0.3125,0.313 0.4881,0.737 0.4881,1.179v10c0,0.442 -0.1756,0.866 -0.4881,1.179c-0.3126,0.312 -0.7365,0.488 -1.1785,0.488h-1.6667c-0.442,0 -0.8659,-0.176 -1.1785,-0.488c-0.3126,-0.313 -0.4882,-0.737 -0.4882,-1.179z" stroke="#4F4F4F" stroke-width="2" stroke-linecap="round" stroke-linejoin="round"/>
</g></svg>