<svg viewBox="0 0 10.5 11.6667" x="0" y="0" fill="none" xmlns="http://www.w3.org/2000/svg"><path id="Vector_14" d="M0.58,2.9163h9.34M4.08,5.2503v3.5M6.42,5.2503v3.5M1.17,2.9163l0.58,7c0,0.31 0.12,0.606 0.34,0.825c0.22,0.219 0.52,0.342 0.83,0.342h4.66c0.31,0 0.61,-0.123 0.83,-0.342c0.22,-0.219 0.34,-0.515 0.34,-0.825l0.58,-7M3.5,2.9163v-1.75c0,-0.154 0.06,-0.303 0.17,-0.412c0.11,-0.11 0.26,-0.171 0.41,-0.171h2.34c0.15,0 0.3,0.061 0.41,0.171c0.11,0.109 0.17,0.258 0.17,0.412v1.75" stroke="#E22D57" stroke-width="1.16667" stroke-linecap="round" stroke-linejoin="round" xmlns="http://www.w3.org/2000/svg"/></svg>