<svg viewBox="0 0 16.1667 17.8333" x="0" y="0" fill="none" xmlns="http://www.w3.org/2000/svg"><path id="Vector_62" d="M1.8333,16.833v-4.166l-0.8333,-0.834v-3.333c0,-0.221 0.0878,-0.433 0.2441,-0.589c0.1563,-0.157 0.3682,-0.244 0.5892,-0.244h3.3334c0.221,0 0.433,0.087 0.5892,0.244c0.1563,0.156 0.2441,0.368 0.2441,0.589v3.333l-0.8333,0.834v4.166M10.1667,16.833v-3.333h-1.6667l1.6667,-5c0,-0.221 0.0878,-0.433 0.2441,-0.589c0.1562,-0.157 0.3682,-0.244 0.5892,-0.244h1.6667c0.221,0 0.433,0.087 0.5892,0.244c0.1563,0.156 0.2441,0.368 0.2441,0.589l1.6667,5h-1.6667v3.333M1.8333,2.667c0,0.442 0.1756,0.866 0.4882,1.178c0.3126,0.313 0.7365,0.488 1.1785,0.488c0.442,0 0.866,-0.175 1.1785,-0.488c0.3126,-0.312 0.4882,-0.736 0.4882,-1.178c0,-0.442 -0.1756,-0.866 -0.4882,-1.179c-0.3125,-0.312 -0.7365,-0.488 -1.1785,-0.488c-0.442,0 -0.8659,0.176 -1.1785,0.488c-0.3126,0.313 -0.4882,0.737 -0.4882,1.179zM10.1667,2.667c0,0.442 0.1756,0.866 0.4881,1.178c0.3126,0.313 0.7365,0.488 1.1785,0.488c0.4421,0 0.866,-0.175 1.1786,-0.488c0.3125,-0.312 0.4881,-0.736 0.4881,-1.178c0,-0.442 -0.1756,-0.866 -0.4881,-1.179c-0.3126,-0.312 -0.7365,-0.488 -1.1786,-0.488c-0.442,0 -0.8659,0.176 -1.1785,0.488c-0.3125,0.313 -0.4881,0.737 -0.4881,1.179z" stroke="#4F4F4F" stroke-width="2" stroke-linecap="round" stroke-linejoin="round" xmlns="http://www.w3.org/2000/svg"/></svg>