<svg viewBox="0 0 17.8333 17" x="0" y="0" fill="none" xmlns="http://www.w3.org/2000/svg"><path id="Vector_60" d="M3.5,1.833h-0.8333c-0.4421,0 -0.866,0.176 -1.1785,0.488c-0.3126,0.313 -0.4882,0.737 -0.4882,1.179v2.917c0,1.215 0.4829,2.381 1.3424,3.241c0.8596,0.859 2.0254,1.342 3.2409,1.342c1.2156,0 2.3814,-0.483 3.2409,-1.342c0.8596,-0.86 1.3425,-2.026 1.3425,-3.241v-2.917c0,-0.442 -0.1756,-0.866 -0.4882,-1.179c-0.3126,-0.312 -0.7365,-0.488 -1.1785,-0.488h-0.8333M5.1667,11c0,0.657 0.1293,1.307 0.3806,1.913c0.2512,0.607 0.6195,1.158 1.0838,1.623c0.4643,0.464 1.0155,0.832 1.6221,1.083c0.6067,0.252 1.2569,0.381 1.9135,0.381c0.6566,0 1.3068,-0.129 1.9134,-0.381c0.6066,-0.251 1.1578,-0.619 1.6221,-1.083c0.4643,-0.465 0.8326,-1.016 1.0839,-1.623c0.2512,-0.606 0.3806,-1.256 0.3806,-1.913v-2.5M15.1667,8.5c-0.4421,0 -0.866,-0.176 -1.1785,-0.488c-0.3126,-0.313 -0.4882,-0.737 -0.4882,-1.179c0,-0.442 0.1756,-0.866 0.4882,-1.178c0.3125,-0.313 0.7364,-0.488 1.1785,-0.488c0.442,0 0.8659,0.175 1.1785,0.488c0.3125,0.312 0.4881,0.736 0.4881,1.178c0,0.442 -0.1756,0.866 -0.4881,1.179c-0.3126,0.312 -0.7365,0.488 -1.1785,0.488zM7.6667,1v1.667M3.5,1v1.667" stroke="#4274EA" stroke-width="2" stroke-linecap="round" stroke-linejoin="round" xmlns="http://www.w3.org/2000/svg"/></svg>