<svg viewBox="0 0 11.0834 11.0834" x="0" y="0" fill="none" xmlns="http://www.w3.org/2000/svg"><path id="Vector_13" d="M2.33,2.9164h-0.58c-0.31,0 -0.61,0.123 -0.82,0.342c-0.22,0.219 -0.35,0.516 -0.35,0.825v5.25c0,0.309 0.13,0.606 0.35,0.825c0.21,0.219 0.51,0.342 0.82,0.342h5.25c0.31,0 0.61,-0.123 0.82,-0.342c0.22,-0.219 0.35,-0.516 0.35,-0.825v-0.583M7.58,1.7504l1.75,1.75M10.14,2.6744c0.23,-0.23 0.36,-0.541 0.36,-0.866c0,-0.325 -0.13,-0.637 -0.36,-0.866c-0.23,-0.23 -0.54,-0.359 -0.87,-0.359c-0.32,0 -0.63,0.129 -0.86,0.359l-4.91,4.891v1.75h1.75z" stroke="#065BCC" stroke-width="1.16667" stroke-linecap="round" stroke-linejoin="round" xmlns="http://www.w3.org/2000/svg"/></svg>