<svg viewBox="0 0 10.5 10.5" x="0" y="0" fill="none" xmlns="http://www.w3.org/2000/svg"><g id="Vector_6" xmlns="http://www.w3.org/2000/svg">
<path d="M0.58,1.167c0,-0.155 0.06,-0.303 0.17,-0.413c0.11,-0.109 0.26,-0.171 0.42,-0.171h2.33c0.15,0 0.3,0.062 0.41,0.171c0.11,0.11 0.17,0.258 0.17,0.413v2.333c0,0.155 -0.06,0.303 -0.17,0.412c-0.11,0.11 -0.26,0.171 -0.41,0.171h-2.33c-0.16,0 -0.31,-0.061 -0.42,-0.171c-0.11,-0.109 -0.17,-0.257 -0.17,-0.412z" stroke="#9A9A9A" stroke-width="1.16667" stroke-linecap="round" stroke-linejoin="round"/>
<path d="M6.42,1.167c0,-0.155 0.06,-0.303 0.17,-0.413c0.11,-0.109 0.26,-0.171 0.41,-0.171h2.33c0.16,0 0.31,0.062 0.42,0.171c0.11,0.11 0.17,0.258 0.17,0.413v2.333c0,0.155 -0.06,0.303 -0.17,0.412c-0.11,0.11 -0.26,0.171 -0.42,0.171h-2.33c-0.15,0 -0.3,-0.061 -0.41,-0.171c-0.11,-0.109 -0.17,-0.257 -0.17,-0.412z" stroke="#9A9A9A" stroke-width="1.16667" stroke-linecap="round" stroke-linejoin="round"/>
<path d="M0.58,7c0,-0.155 0.06,-0.303 0.17,-0.412c0.11,-0.11 0.26,-0.171 0.42,-0.171h2.33c0.15,0 0.3,0.061 0.41,0.171c0.11,0.109 0.17,0.257 0.17,0.412v2.333c0,0.155 -0.06,0.303 -0.17,0.413c-0.11,0.109 -0.26,0.171 -0.41,0.171h-2.33c-0.16,0 -0.31,-0.062 -0.42,-0.171c-0.11,-0.11 -0.17,-0.258 -0.17,-0.413z" stroke="#9A9A9A" stroke-width="1.16667" stroke-linecap="round" stroke-linejoin="round"/>
<path d="M6.42,7c0,-0.155 0.06,-0.303 0.17,-0.412c0.11,-0.11 0.26,-0.171 0.41,-0.171h2.33c0.16,0 0.31,0.061 0.42,0.171c0.11,0.109 0.17,0.257 0.17,0.412v2.333c0,0.155 -0.06,0.303 -0.17,0.413c-0.11,0.109 -0.26,0.171 -0.42,0.171h-2.33c-0.15,0 -0.3,-0.062 -0.41,-0.171c-0.11,-0.11 -0.17,-0.258 -0.17,-0.413z" stroke="#9A9A9A" stroke-width="1.16667" stroke-linecap="round" stroke-linejoin="round"/>
</g></svg>