<svg viewBox="0 0 15.3333 17.8333" x="0" y="0" fill="none" xmlns="http://www.w3.org/2000/svg"><path id="Vector_66" d="M1,10.167v-2.5c0,-1.768 0.7024,-3.464 1.9526,-4.714c1.2503,-1.251 2.946,-1.953 4.7141,-1.953c1.7681,0 3.4638,0.702 4.714,1.953c1.2503,1.25 1.9526,2.946 1.9526,4.714v2.5M1,10.167c0,-0.442 0.1756,-0.866 0.4882,-1.179c0.3125,-0.312 0.7365,-0.488 1.1785,-0.488h0.8333c0.442,0 0.866,0.176 1.1785,0.488c0.3126,0.313 0.4882,0.737 0.4882,1.179v2.5c0,0.442 -0.1756,0.866 -0.4882,1.178c-0.3125,0.313 -0.7365,0.488 -1.1785,0.488h-0.8333c-0.442,0 -0.866,-0.175 -1.1785,-0.488c-0.3126,-0.312 -0.4882,-0.736 -0.4882,-1.178zM14.3333,10.167c0,-0.442 -0.1756,-0.866 -0.4881,-1.179c-0.3126,-0.312 -0.7365,-0.488 -1.1785,-0.488h-0.8334c-0.442,0 -0.8659,0.176 -1.1785,0.488c-0.3125,0.313 -0.4881,0.737 -0.4881,1.179v2.5c0,0.442 0.1756,0.866 0.4881,1.178c0.3126,0.313 0.7365,0.488 1.1785,0.488h0.8334M14.3333,10.167v2.5c0,0.442 -0.1756,0.866 -0.4881,1.178c-0.3126,0.313 -0.7365,0.488 -1.1785,0.488M12.6667,14.333c0,1.381 -2.2384,2.5 -5,2.5" stroke="#9A9A9A" stroke-width="2" stroke-linecap="round" stroke-linejoin="round" xmlns="http://www.w3.org/2000/svg"/></svg>