<svg viewBox="0 0 11.6667 11.6667" x="0" y="0" fill="none" xmlns="http://www.w3.org/2000/svg"><path id="Vector_15" d="M5.8333,4.0833h0.01M5.2533,5.8333h0.58v2.333h0.58M0.5833,5.8333c0,0.689 0.14,1.372 0.4,2.009c0.26,0.637 0.65,1.216 1.14,1.703c0.49,0.488 1.06,0.875 1.7,1.138c0.64,0.264 1.32,0.4 2.01,0.4c0.69,0 1.37,-0.136 2.01,-0.4c0.64,-0.263 1.21,-0.65 1.7,-1.138c0.49,-0.487 0.88,-1.066 1.14,-1.703c0.26,-0.637 0.4,-1.32 0.4,-2.009c0,-1.392 -0.55,-2.728 -1.54,-3.712c-0.98,-0.985 -2.32,-1.538 -3.71,-1.538c-1.39,0 -2.73,0.553 -3.71,1.538c-0.99,0.984 -1.54,2.32 -1.54,3.712z" stroke="#4F4F4F" stroke-width="1.16667" stroke-linecap="round" stroke-linejoin="round" xmlns="http://www.w3.org/2000/svg"/></svg>