<svg viewBox="0 0 120.2957 32" x="0" y="0" fill="none" xmlns="http://www.w3.org/2000/svg"><g id="Logo" xmlns="http://www.w3.org/2000/svg">
<g id="icon">
<rect x="0.25" y="0.25" width="31.5" height="31.5" rx="6.75" fill="white"/>
<rect x="0.25" y="0.25" width="31.5" height="31.5" rx="6.75" stroke="#EBEEF3" stroke-width="0.5"/>
<g id="logo">
<path id="Vector_55" d="M20.7501,14.8998c-0.2558,0.2574 -0.4517,0.568 -0.5738,0.9097c-0.122,0.3418 -0.1672,0.7062 -0.1323,1.0674l-0.0121,-0.0121c0.0359,0.4252 -0.0215,0.853 -0.168,1.2538c-0.1466,0.4006 -0.3788,0.7645 -0.6804,1.0663c-0.3018,0.3016 -0.6657,0.5339 -1.0664,0.6804c-0.4007,0.1465 -0.8286,0.2039 -1.2537,0.168l0.0121,0.0121c-0.5085,-0.0473 -1.0193,0.0634 -1.4627,0.317c-0.4434,0.2536 -0.7978,0.6377 -1.0148,1.1001c-0.217,0.4624 -0.2862,0.9804 -0.198,1.4835c0.0882,0.5031 0.3294,0.9668 0.6907,1.3278c0.3613,0.361 0.8252,0.6018 1.3284,0.6894c0.5032,0.0878 1.0211,0.0181 1.4833,-0.1993c0.4622,-0.2175 0.846,-0.5721 1.0992,-1.0158c0.2532,-0.4436 0.3634,-0.9544 0.3156,-1.463l0.0129,0.0122c-0.036,-0.4251 0.0214,-0.853 0.1679,-1.2538c0.1465,-0.4007 0.3788,-0.7646 0.6805,-1.0663c0.3017,-0.3017 0.6656,-0.5339 1.0663,-0.6804c0.4008,-0.1466 0.8286,-0.2039 1.2538,-0.168l-0.0129,-0.0122c0.4154,0.0374 0.8336,-0.0308 1.2157,-0.198c0.3821,-0.1673 0.7158,-0.4283 0.9702,-0.7589c0.2543,-0.3305 0.4212,-0.72 0.4849,-1.1322c0.0638,-0.4122 0.0225,-0.8338 -0.1201,-1.2259c-0.1426,-0.3919 -0.3818,-0.7416 -0.6955,-1.0165c-0.3136,-0.275 -0.6916,-0.4663 -1.0989,-0.5562c-0.4073,-0.0899 -0.8308,-0.0756 -1.2311,0.0417c-0.4002,0.1173 -0.7644,0.3337 -1.0588,0.6292z" fill="#56E796"/>
<path id="Vector_56" d="M15.7705,18.4536l-0.0128,-0.0121c0.3613,0.0364 0.7262,-0.008 1.0684,-0.1299c0.3421,-0.1219 0.6528,-0.3182 0.9098,-0.5749c0.2568,-0.2568 0.4535,-0.5674 0.5756,-0.9094c0.1222,-0.3421 0.1668,-0.7069 0.1307,-1.0683l0.0128,0.0122c-0.0359,-0.4252 0.0215,-0.8531 0.168,-1.2538c0.1465,-0.4007 0.3788,-0.7646 0.6804,-1.0663c0.3018,-0.3017 0.6657,-0.534 1.0664,-0.6804c0.4007,-0.1466 0.8285,-0.2039 1.2537,-0.1681l-0.0128,-0.0121c0.5086,0.0478 1.0195,-0.0625 1.4631,-0.3158c0.4437,-0.2533 0.7984,-0.6373 1.0157,-1.0996c0.2174,-0.4623 0.2868,-0.9804 0.199,-1.4836c-0.0879,-0.5033 -0.3289,-0.9671 -0.6902,-1.3284c-0.3612,-0.3612 -0.825,-0.6022 -1.3283,-0.6901c-0.5032,-0.0879 -1.0213,-0.0184 -1.4836,0.1989c-0.4623,0.2174 -0.8462,0.5721 -1.0996,1.0157c-0.2533,0.4436 -0.3636,0.9546 -0.3158,1.4632l-0.0121,-0.0128c0.0359,0.4252 -0.0213,0.8531 -0.1678,1.2539c-0.1465,0.4007 -0.3787,0.7647 -0.6804,1.0664c-0.3017,0.3017 -0.6657,0.534 -1.0665,0.6804c-0.4008,0.1465 -0.8287,0.2038 -1.2539,0.1678l0.0122,0.0128c-0.3613,-0.0364 -0.7263,0.008 -1.0684,0.1299c-0.3421,0.1218 -0.6529,0.3183 -0.9098,0.575c-0.2569,0.2567 -0.4535,0.5673 -0.5757,0.9093c-0.1221,0.3421 -0.1667,0.7069 -0.1306,1.0683l-0.0122,-0.0121c0.0358,0.4251 -0.0216,0.8529 -0.1682,1.2536c-0.1466,0.4006 -0.3788,0.7645 -0.6805,1.0662c-0.3017,0.3016 -0.6655,0.5338 -1.0662,0.6805c-0.4006,0.1465 -0.8285,0.2039 -1.2536,0.1682l0.0122,0.0121c-0.5086,-0.0478 -1.0196,0.0625 -1.4632,0.3159c-0.4436,0.2533 -0.7983,0.6372 -1.0157,1.0995c-0.2174,0.4624 -0.2868,0.9804 -0.1989,1.4837c0.0879,0.5032 0.3289,0.967 0.6901,1.3282c0.3612,0.3613 0.8251,0.6023 1.3283,0.6902c0.5032,0.0879 1.0213,0.0184 1.4836,-0.1989c0.4623,-0.2174 0.8463,-0.5721 1.0996,-1.0157c0.2534,-0.4437 0.3637,-0.9546 0.3159,-1.4632l0.0128,0.0122c-0.0359,-0.4252 0.0215,-0.8531 0.168,-1.2538c0.1465,-0.4007 0.3787,-0.7646 0.6804,-1.0663c0.3017,-0.3017 0.6656,-0.534 1.0663,-0.6804c0.4008,-0.1466 0.8286,-0.204 1.2538,-0.1681z" fill="#4274EA"/>
<path id="Vector_57" d="M11.2465,17.0988c0.2559,-0.2573 0.4518,-0.5679 0.5737,-0.9097c0.1219,-0.3417 0.1669,-0.7062 0.1317,-1.0674l0.0128,0.0122c-0.0359,-0.4253 0.0215,-0.8533 0.1681,-1.2541c0.1466,-0.4009 0.379,-0.7648 0.6808,-1.0666c0.3019,-0.3017 0.6659,-0.5339 1.0668,-0.6803c0.4009,-0.1465 0.8289,-0.2036 1.2542,-0.1675l-0.0128,-0.0122c0.5084,0.0477 1.0192,-0.0627 1.4626,-0.316c0.4434,-0.2533 0.7979,-0.6372 1.0151,-1.0993c0.2173,-0.4622 0.2867,-0.9801 0.1988,-1.4831c-0.0879,-0.5031 -0.3289,-0.9667 -0.69,-1.3278c-0.361,-0.3611 -0.8248,-0.602 -1.3278,-0.6899c-0.503,-0.088 -1.0209,-0.0186 -1.483,0.1987c-0.4622,0.2172 -0.8461,0.5717 -1.0994,1.0151c-0.2533,0.4434 -0.3637,0.9542 -0.316,1.4626l-0.0122,-0.0121c0.036,0.4251 -0.0214,0.853 -0.168,1.2537c-0.1465,0.4007 -0.3787,0.7646 -0.6804,1.0663c-0.3017,0.3017 -0.6656,0.534 -1.0663,0.6805c-0.4007,0.1465 -0.8286,0.2039 -1.2538,0.168l0.0122,0.0121c-0.4154,-0.0372 -0.8335,0.031 -1.2156,0.1984c-0.382,0.1673 -0.7157,0.4284 -0.9699,0.759c-0.2543,0.3306 -0.421,0.72 -0.4847,1.1322c-0.0637,0.4122 -0.0224,0.8338 0.1202,1.2258c0.1426,0.3919 0.3819,0.7415 0.6956,1.0164c0.3137,0.2749 0.6917,0.4661 1.099,0.5561c0.4073,0.0898 0.8306,0.0754 1.2309,-0.0418c0.4003,-0.1173 0.7644,-0.3337 1.0588,-0.6293z" fill="#56E796"/>
</g>
</g>
<g id="Wrapper">
<g id="Medify">
<path d="M42,7.0668h4.5511l4.8069,11.7272h0.2045l4.8068,-11.7272h4.5512v17.4545h-3.5796v-11.3608h-0.1449l-4.517,11.2756h-2.4375l-4.5171,-11.3182h-0.1449v11.4034h-3.5795z" fill="#232323"/>
<path d="M42,7.0668h4.5511l4.8069,11.7272h0.2045l4.8068,-11.7272h4.5512v17.4545h-3.5796v-11.3608h-0.1449l-4.517,11.2756h-2.4375l-4.5171,-11.3182h-0.1449v11.4034h-3.5795z" fill="black" fill-opacity="0.2"/>
<path d="M69.6187,24.777c-1.3466,0 -2.5057,-0.2727 -3.4773,-0.8182c-0.9659,-0.5511 -1.7102,-1.3295 -2.233,-2.3352c-0.5227,-1.0114 -0.7841,-2.2074 -0.7841,-3.5881c0,-1.3466 0.2614,-2.5284 0.7841,-3.5454c0.5228,-1.0171 1.2586,-1.8097 2.2074,-2.3779c0.9546,-0.5682 2.0739,-0.8522 3.358,-0.8522c0.8636,0 1.6676,0.1392 2.4119,0.4176c0.75,0.2727 1.4034,0.6846 1.9602,1.2358c0.5625,0.5511 1,1.2443 1.3125,2.0795c0.3125,0.8296 0.4688,1.8011 0.4688,2.9148v0.9971h-11.054v-2.25h7.6364c0,-0.5227 -0.1137,-0.9858 -0.3409,-1.3892c-0.2273,-0.4034 -0.5426,-0.7187 -0.9461,-0.946c-0.3977,-0.2329 -0.8608,-0.3494 -1.3892,-0.3494c-0.5511,0 -1.0397,0.1278 -1.4659,0.3835c-0.4204,0.25 -0.75,0.5881 -0.9886,1.0142c-0.2386,0.4205 -0.3608,0.8892 -0.3665,1.4063v2.1392c0,0.6477 0.1193,1.2073 0.358,1.6789c0.2443,0.4716 0.588,0.8353 1.0312,1.0909c0.4432,0.2557 0.9688,0.3836 1.5767,0.3836c0.4034,0 0.7728,-0.0568 1.108,-0.1705c0.3352,-0.1136 0.6221,-0.2841 0.8608,-0.5113c0.2386,-0.2273 0.4204,-0.5057 0.5454,-0.8353l3.358,0.2216c-0.1705,0.8068 -0.5199,1.5114 -1.0483,2.1137c-0.5227,0.5965 -1.1989,1.0625 -2.0284,1.3977c-0.8239,0.3295 -1.7756,0.4943 -2.8551,0.4943z" fill="#232323"/>
<path d="M69.6187,24.777c-1.3466,0 -2.5057,-0.2727 -3.4773,-0.8182c-0.9659,-0.5511 -1.7102,-1.3295 -2.233,-2.3352c-0.5227,-1.0114 -0.7841,-2.2074 -0.7841,-3.5881c0,-1.3466 0.2614,-2.5284 0.7841,-3.5454c0.5228,-1.0171 1.2586,-1.8097 2.2074,-2.3779c0.9546,-0.5682 2.0739,-0.8522 3.358,-0.8522c0.8636,0 1.6676,0.1392 2.4119,0.4176c0.75,0.2727 1.4034,0.6846 1.9602,1.2358c0.5625,0.5511 1,1.2443 1.3125,2.0795c0.3125,0.8296 0.4688,1.8011 0.4688,2.9148v0.9971h-11.054v-2.25h7.6364c0,-0.5227 -0.1137,-0.9858 -0.3409,-1.3892c-0.2273,-0.4034 -0.5426,-0.7187 -0.9461,-0.946c-0.3977,-0.2329 -0.8608,-0.3494 -1.3892,-0.3494c-0.5511,0 -1.0397,0.1278 -1.4659,0.3835c-0.4204,0.25 -0.75,0.5881 -0.9886,1.0142c-0.2386,0.4205 -0.3608,0.8892 -0.3665,1.4063v2.1392c0,0.6477 0.1193,1.2073 0.358,1.6789c0.2443,0.4716 0.588,0.8353 1.0312,1.0909c0.4432,0.2557 0.9688,0.3836 1.5767,0.3836c0.4034,0 0.7728,-0.0568 1.108,-0.1705c0.3352,-0.1136 0.6221,-0.2841 0.8608,-0.5113c0.2386,-0.2273 0.4204,-0.5057 0.5454,-0.8353l3.358,0.2216c-0.1705,0.8068 -0.5199,1.5114 -1.0483,2.1137c-0.5227,0.5965 -1.1989,1.0625 -2.0284,1.3977c-0.8239,0.3295 -1.7756,0.4943 -2.8551,0.4943z" fill="black" fill-opacity="0.2"/>
<path d="M82.58,24.7344c-0.994,0 -1.895,-0.2557 -2.701,-0.7671c-0.801,-0.517 -1.438,-1.2755 -1.909,-2.2755c-0.466,-1.0057 -0.699,-2.2387 -0.699,-3.6989c0,-1.5 0.241,-2.7472 0.724,-3.7415c0.483,-1 1.125,-1.7471 1.926,-2.2414c0.807,-0.5 1.691,-0.75 2.651,-0.75c0.733,0 1.344,0.125 1.832,0.375c0.495,0.2443 0.892,0.5511 1.193,0.9204c0.307,0.3636 0.54,0.7216 0.699,1.0739h0.111v-6.5625h3.622v17.4545h-3.579v-2.0966h-0.154c-0.17,0.3637 -0.412,0.7245 -0.724,1.0824c-0.307,0.3523 -0.708,0.6449 -1.202,0.8779c-0.488,0.2329 -1.085,0.3494 -1.79,0.3494zM83.731,21.8452c0.585,0 1.079,-0.1591 1.483,-0.4773c0.409,-0.3239 0.721,-0.7756 0.937,-1.3551c0.222,-0.5796 0.333,-1.2585 0.333,-2.0369c0,-0.7784 -0.108,-1.4546 -0.324,-2.0284c-0.216,-0.5739 -0.528,-1.0171 -0.938,-1.3296c-0.409,-0.3125 -0.906,-0.4687 -1.491,-0.4687c-0.597,0 -1.099,0.1619 -1.509,0.4858c-0.409,0.3238 -0.718,0.7727 -0.929,1.3465c-0.21,0.5739 -0.315,1.2387 -0.315,1.9944c0,0.7613 0.105,1.4346 0.315,2.0198c0.216,0.5796 0.526,1.0341 0.929,1.3637c0.41,0.3238 0.912,0.4858 1.509,0.4858z" fill="#232323"/>
<path d="M82.58,24.7344c-0.994,0 -1.895,-0.2557 -2.701,-0.7671c-0.801,-0.517 -1.438,-1.2755 -1.909,-2.2755c-0.466,-1.0057 -0.699,-2.2387 -0.699,-3.6989c0,-1.5 0.241,-2.7472 0.724,-3.7415c0.483,-1 1.125,-1.7471 1.926,-2.2414c0.807,-0.5 1.691,-0.75 2.651,-0.75c0.733,0 1.344,0.125 1.832,0.375c0.495,0.2443 0.892,0.5511 1.193,0.9204c0.307,0.3636 0.54,0.7216 0.699,1.0739h0.111v-6.5625h3.622v17.4545h-3.579v-2.0966h-0.154c-0.17,0.3637 -0.412,0.7245 -0.724,1.0824c-0.307,0.3523 -0.708,0.6449 -1.202,0.8779c-0.488,0.2329 -1.085,0.3494 -1.79,0.3494zM83.731,21.8452c0.585,0 1.079,-0.1591 1.483,-0.4773c0.409,-0.3239 0.721,-0.7756 0.937,-1.3551c0.222,-0.5796 0.333,-1.2585 0.333,-2.0369c0,-0.7784 -0.108,-1.4546 -0.324,-2.0284c-0.216,-0.5739 -0.528,-1.0171 -0.938,-1.3296c-0.409,-0.3125 -0.906,-0.4687 -1.491,-0.4687c-0.597,0 -1.099,0.1619 -1.509,0.4858c-0.409,0.3238 -0.718,0.7727 -0.929,1.3465c-0.21,0.5739 -0.315,1.2387 -0.315,1.9944c0,0.7613 0.105,1.4346 0.315,2.0198c0.216,0.5796 0.526,1.0341 0.929,1.3637c0.41,0.3238 0.912,0.4858 1.509,0.4858z" fill="black" fill-opacity="0.2"/>
<path d="M92.774,24.5213v-13.0909h3.631v13.0909zM94.598,9.7429c-0.54,0 -1.003,-0.179 -1.389,-0.5369c-0.381,-0.3637 -0.571,-0.7983 -0.571,-1.304c0,-0.5 0.19,-0.929 0.571,-1.2869c0.386,-0.3637 0.849,-0.5455 1.389,-0.5455c0.54,0 1,0.1818 1.381,0.5455c0.386,0.3579 0.579,0.7869 0.579,1.2869c0,0.5057 -0.193,0.9403 -0.579,1.304c-0.381,0.3579 -0.841,0.5369 -1.381,0.5369z" fill="#232323"/>
<path d="M92.774,24.5213v-13.0909h3.631v13.0909zM94.598,9.7429c-0.54,0 -1.003,-0.179 -1.389,-0.5369c-0.381,-0.3637 -0.571,-0.7983 -0.571,-1.304c0,-0.5 0.19,-0.929 0.571,-1.2869c0.386,-0.3637 0.849,-0.5455 1.389,-0.5455c0.54,0 1,0.1818 1.381,0.5455c0.386,0.3579 0.579,0.7869 0.579,1.2869c0,0.5057 -0.193,0.9403 -0.579,1.304c-0.381,0.3579 -0.841,0.5369 -1.381,0.5369z" fill="black" fill-opacity="0.2"/>
<path d="M106.113,11.4304v2.7273h-8.079v-2.7273zM99.883,24.5213v-14.0369c0,-0.9489 0.185,-1.7358 0.554,-2.3608c0.375,-0.625 0.886,-1.0938 1.534,-1.4063c0.648,-0.3125 1.384,-0.4687 2.207,-0.4687c0.557,0 1.066,0.0426 1.526,0.1278c0.466,0.0853 0.813,0.162 1.04,0.2301l-0.648,2.7273c-0.142,-0.0454 -0.318,-0.0881 -0.528,-0.1278c-0.205,-0.0398 -0.415,-0.0597 -0.631,-0.0597c-0.534,0 -0.906,0.125 -1.116,0.375c-0.211,0.2443 -0.316,0.5881 -0.316,1.0313v13.9687z" fill="#232323"/>
<path d="M106.113,11.4304v2.7273h-8.079v-2.7273zM99.883,24.5213v-14.0369c0,-0.9489 0.185,-1.7358 0.554,-2.3608c0.375,-0.625 0.886,-1.0938 1.534,-1.4063c0.648,-0.3125 1.384,-0.4687 2.207,-0.4687c0.557,0 1.066,0.0426 1.526,0.1278c0.466,0.0853 0.813,0.162 1.04,0.2301l-0.648,2.7273c-0.142,-0.0454 -0.318,-0.0881 -0.528,-0.1278c-0.205,-0.0398 -0.415,-0.0597 -0.631,-0.0597c-0.534,0 -0.906,0.125 -1.116,0.375c-0.211,0.2443 -0.316,0.5881 -0.316,1.0313v13.9687z" fill="black" fill-opacity="0.2"/>
<path d="M110.333,29.4304c-0.461,0 -0.892,-0.0369 -1.296,-0.1108c-0.398,-0.0682 -0.727,-0.1562 -0.988,-0.2642l0.818,-2.7102c0.426,0.1307 0.809,0.2017 1.15,0.213c0.347,0.0114 0.645,-0.0681 0.895,-0.2386c0.256,-0.1704 0.463,-0.4602 0.622,-0.8693l0.213,-0.554l-4.696,-13.4659h3.819l2.71,9.6136h0.136l2.736,-9.6136h3.844l-5.088,14.5057c-0.245,0.7045 -0.577,1.3182 -0.997,1.8409c-0.415,0.5284 -0.941,0.9347 -1.577,1.2187c-0.637,0.2898 -1.404,0.4347 -2.301,0.4347z" fill="#232323"/>
<path d="M110.333,29.4304c-0.461,0 -0.892,-0.0369 -1.296,-0.1108c-0.398,-0.0682 -0.727,-0.1562 -0.988,-0.2642l0.818,-2.7102c0.426,0.1307 0.809,0.2017 1.15,0.213c0.347,0.0114 0.645,-0.0681 0.895,-0.2386c0.256,-0.1704 0.463,-0.4602 0.622,-0.8693l0.213,-0.554l-4.696,-13.4659h3.819l2.71,9.6136h0.136l2.736,-9.6136h3.844l-5.088,14.5057c-0.245,0.7045 -0.577,1.3182 -0.997,1.8409c-0.415,0.5284 -0.941,0.9347 -1.577,1.2187c-0.637,0.2898 -1.404,0.4347 -2.301,0.4347z" fill="black" fill-opacity="0.2"/>
</g>
</g>
</g></svg>