<svg viewBox="0 0 17 17" x="0" y="0" fill="none" xmlns="http://www.w3.org/2000/svg"><path id="Vector_61" d="M1,16v-1.667c0,-0.884 0.3512,-1.732 0.9763,-2.357c0.6251,-0.625 1.473,-0.976 2.357,-0.976h3.3334c0.884,0 1.7319,0.351 2.357,0.976c0.6251,0.625 0.9763,1.473 0.9763,2.357v1.667M11.8333,1.108c0.717,0.184 1.3526,0.601 1.8064,1.185c0.4538,0.585 0.7002,1.304 0.7002,2.044c0,0.741 -0.2464,1.46 -0.7002,2.044c-0.4538,0.585 -1.0894,1.002 -1.8064,1.186M16,16v-1.667c-0.0042,-0.735 -0.2517,-1.449 -0.7039,-2.029c-0.4523,-0.581 -1.0837,-0.995 -1.7961,-1.179M2.6667,4.333c0,0.884 0.3512,1.732 0.9763,2.357c0.6251,0.625 1.4729,0.977 2.357,0.977c0.8841,0 1.7319,-0.352 2.357,-0.977c0.6251,-0.625 0.9763,-1.473 0.9763,-2.357c0,-0.884 -0.3512,-1.732 -0.9763,-2.357c-0.6251,-0.625 -1.4729,-0.976 -2.357,-0.976c-0.8841,0 -1.7319,0.351 -2.357,0.976c-0.6251,0.625 -0.9763,1.473 -0.9763,2.357z" stroke="#4F4F4F" stroke-width="2" stroke-linecap="round" stroke-linejoin="round" xmlns="http://www.w3.org/2000/svg"/></svg>