<svg viewBox="0 0 13.6667 17" x="0" y="0" fill="none" xmlns="http://www.w3.org/2000/svg"><path id="Vector_63" d="M4.3333,2.667h-1.6666c-0.4421,0 -0.866,0.175 -1.1786,0.488c-0.3125,0.312 -0.4881,0.736 -0.4881,1.178v10c0,0.442 0.1756,0.866 0.4881,1.179c0.3126,0.312 0.7365,0.488 1.1786,0.488h8.3333c0.442,0 0.8659,-0.176 1.1785,-0.488c0.3126,-0.313 0.4882,-0.737 0.4882,-1.179v-10c0,-0.442 -0.1756,-0.866 -0.4882,-1.178c-0.3126,-0.313 -0.7365,-0.488 -1.1785,-0.488h-1.6667M4.3333,2.667c0,-0.442 0.1756,-0.866 0.4882,-1.179c0.3125,-0.312 0.7365,-0.488 1.1785,-0.488h1.6667c0.442,0 0.8659,0.176 1.1785,0.488c0.3125,0.313 0.4881,0.737 0.4881,1.179M4.3333,2.667c0,0.442 0.1756,0.866 0.4882,1.178c0.3125,0.313 0.7365,0.488 1.1785,0.488h1.6667c0.442,0 0.8659,-0.175 1.1785,-0.488c0.3125,-0.312 0.4881,-0.736 0.4881,-1.178M8.5,7.667h-2.0833c-0.3316,0 -0.6495,0.131 -0.8839,0.366c-0.2345,0.234 -0.3661,0.552 -0.3661,0.884c0,0.331 0.1316,0.649 0.3661,0.884c0.2344,0.234 0.5523,0.366 0.8839,0.366h0.8333c0.3315,0 0.6495,0.131 0.8839,0.366c0.2344,0.234 0.3661,0.552 0.3661,0.884c0,0.331 -0.1317,0.649 -0.3661,0.884c-0.2344,0.234 -0.5524,0.366 -0.8839,0.366h-2.0833M6.8333,12.667v0.833M6.8333,6.833v0.834" stroke="#4F4F4F" stroke-width="2" stroke-linecap="round" stroke-linejoin="round" xmlns="http://www.w3.org/2000/svg"/></svg>