<svg viewBox="0 0 13.3333 13.3333" x="0" y="0" fill="none" xmlns="http://www.w3.org/2000/svg"><path id="Vector_3" d="M12.6667,12.6667l-4,-4M0.6667,5.3337c0,0.613 0.121,1.219 0.355,1.786c0.235,0.566 0.578,1.08 1.012,1.513c0.433,0.434 0.948,0.778 1.514,1.012c0.566,0.235 1.173,0.355 1.786,0.355c0.613,0 1.219,-0.12 1.786,-0.355c0.566,-0.234 1.08,-0.578 1.513,-1.012c0.434,-0.433 0.778,-0.947 1.012,-1.513c0.235,-0.567 0.355,-1.173 0.355,-1.786c0,-0.613 -0.12,-1.22 -0.355,-1.786c-0.234,-0.566 -0.578,-1.081 -1.012,-1.514c-0.433,-0.434 -0.947,-0.777 -1.513,-1.012c-0.567,-0.234 -1.173,-0.355 -1.786,-0.355c-0.613,0 -1.22,0.121 -1.786,0.355c-0.566,0.235 -1.081,0.578 -1.514,1.012c-0.434,0.433 -0.777,0.948 -1.012,1.514c-0.234,0.566 -0.355,1.173 -0.355,1.786z" stroke="#4F4F4F" stroke-width="1.33333" stroke-linecap="round" stroke-linejoin="round" xmlns="http://www.w3.org/2000/svg"/></svg>