<svg viewBox="0 0 17 17" x="0" y="0" fill="none" xmlns="http://www.w3.org/2000/svg"><g id="Vector_65" xmlns="http://www.w3.org/2000/svg">
<path d="M7.1042,2.097c0.355,-1.463 2.4366,-1.463 2.7916,0c0.0533,0.22 0.1577,0.424 0.3048,0.596c0.1471,0.172 0.3326,0.307 0.5416,0.393c0.209,0.087 0.4354,0.123 0.661,0.106c0.2255,-0.018 0.4437,-0.088 0.6368,-0.206c1.2858,-0.784 2.7583,0.688 1.975,1.975c-0.1176,0.193 -0.188,0.411 -0.2054,0.636c-0.0174,0.226 0.0185,0.452 0.105,0.661c0.0865,0.209 0.221,0.394 0.3927,0.541c0.1716,0.147 0.3756,0.252 0.5952,0.305c1.4633,0.355 1.4633,2.437 0,2.792c-0.2198,0.053 -0.424,0.158 -0.5958,0.305c-0.1719,0.147 -0.3066,0.332 -0.3932,0.541c-0.0865,0.209 -0.1225,0.436 -0.1051,0.661c0.0175,0.226 0.088,0.444 0.2058,0.637c0.7833,1.286 -0.6884,2.758 -1.975,1.975c-0.1931,-0.118 -0.4111,-0.188 -0.6365,-0.205c-0.2254,-0.018 -0.4517,0.018 -0.6605,0.105c-0.2089,0.086 -0.3943,0.221 -0.5414,0.392c-0.1471,0.172 -0.2516,0.376 -0.305,0.595c-0.355,1.464 -2.4366,1.464 -2.7916,0c-0.0533,-0.219 -0.1577,-0.423 -0.3048,-0.595c-0.1471,-0.172 -0.3326,-0.307 -0.5416,-0.393c-0.209,-0.087 -0.4354,-0.123 -0.661,-0.106c-0.2255,0.018 -0.4437,0.088 -0.6368,0.206c-1.2858,0.783 -2.7583,-0.688 -1.975,-1.975c0.1176,-0.193 0.188,-0.411 0.2054,-0.636c0.0174,-0.226 -0.0185,-0.452 -0.105,-0.661c-0.0865,-0.209 -0.221,-0.394 -0.3927,-0.541c-0.1716,-0.147 -0.3756,-0.252 -0.5952,-0.305c-1.4633,-0.355 -1.4633,-2.437 0,-2.792c0.2198,-0.053 0.424,-0.158 0.5958,-0.305c0.1719,-0.147 0.3066,-0.332 0.3932,-0.541c0.0865,-0.209 0.1225,-0.436 0.1051,-0.661c-0.0175,-0.226 -0.088,-0.444 -0.2058,-0.637c-0.7833,-1.286 0.6884,-2.758 1.975,-1.975c0.8334,0.507 1.9134,0.058 2.1434,-0.888z" stroke="#9A9A9A" stroke-width="2" stroke-linecap="round" stroke-linejoin="round"/>
<path d="M6,8.5c0,0.663 0.2634,1.299 0.7322,1.768c0.4689,0.469 1.1048,0.732 1.7678,0.732c0.663,0 1.2989,-0.263 1.7678,-0.732c0.4688,-0.469 0.7322,-1.105 0.7322,-1.768c0,-0.663 -0.2634,-1.299 -0.7322,-1.768c-0.4689,-0.469 -1.1048,-0.732 -1.7678,-0.732c-0.663,0 -1.2989,0.263 -1.7678,0.732c-0.4688,0.469 -0.7322,1.105 -0.7322,1.768z" stroke="#9A9A9A" stroke-width="2" stroke-linecap="round" stroke-linejoin="round"/>
</g></svg>